{"scene":0,"asset":{"generator":"ImageToStl.com","version":"2.0"},"scenes":[{"name":"Scene","nodes":[0]}],"nodes":[{"name":"Node0","children":[1,2,3,4,5,6,7,8,9,10,11,12]},{"name":"Node1","mesh":0},{"name":"Node2","mesh":1},{"name":"Node3","mesh":2},{"name":"Node4","mesh":3},{"name":"Node5","mesh":4},{"name":"Node6","mesh":5},{"name":"Node7","mesh":6},{"name":"Node8","mesh":7},{"name":"Node9","mesh":8},{"name":"Node10","mesh":9},{"name":"Node11","mesh":10},{"name":"Node12","mesh":11}],"materials":[{"name":"mat0","pbrMetallicRoughness":{"baseColorFactor":[1.0,1.0,1.0,1.0],"metallicFactor":0.0,"roughnessFactor":0.75},"emissiveFactor":[0.0,0.0,0.0],"doubleSided":true},{"name":"mat1","pbrMetallicRoughness":{"baseColorFactor":[0.67059,0.6902,0.8,1.0],"metallicFactor":0.0,"roughnessFactor":0.75},"emissiveFactor":[0.0,0.0,0.0],"doubleSided":true},{"name":"mat2","pbrMetallicRoughness":{"baseColorFactor":[1.0,1.0,1.0,1.0],"metallicFactor":0.0,"roughnessFactor":0.75},"emissiveFactor":[0.0,0.0,0.0],"doubleSided":true},{"name":"mat3","pbrMetallicRoughness":{"baseColorFactor":[0.66667,0.66667,0.66667,1.0],"metallicFactor":0.0,"roughnessFactor":0.75},"emissiveFactor":[0.0,0.0,0.0],"doubleSided":true},{"name":"mat4","pbrMetallicRoughness":{"baseColorFactor":[0.55686,0.55686,0.55686,1.0],"metallicFactor":0.0,"roughnessFactor":0.75},"emissiveFactor":[0.0,0.0,0.0],"doubleSided":true},{"name":"mat5","pbrMetallicRoughness":{"baseColorFactor":[1.0,0.0,0.0,1.0],"metallicFactor":0.0,"roughnessFactor":0.75},"emissiveFactor":[0.0,0.0,0.0],"doubleSided":true},{"name":"mat6","pbrMetallicRoughness":{"baseColorFactor":[0.88627,0.88627,0.88627,1.0],"metallicFactor":0.0,"roughnessFactor":0.75},"emissiveFactor":[0.0,0.0,0.0],"doubleSided":true},{"name":"mat7","pbrMetallicRoughness":{"baseColorFactor":[0.77647,0.77647,0.77647,1.0],"metallicFactor":0.0,"roughnessFactor":0.75},"emissiveFactor":[0.0,0.0,0.0],"doubleSided":true},{"name":"mat8","pbrMetallicRoughness":{"baseColorFactor":[1.0,1.0,1.0,1.0],"metallicFactor":0.0,"roughnessFactor":0.75},"emissiveFactor":[0.0,0.0,0.0],"doubleSided":true},{"name":"mat9","pbrMetallicRoughness":{"baseColorFactor":[0.22745,0.22745,0.22745,1.0],"metallicFactor":0.0,"roughnessFactor":0.75},"emissiveFactor":[0.0,0.0,0.0],"doubleSided":true}],"meshes":[{"name":"Mesh0","primitives":[{"indices":2,"material":0,"attributes":{"POSITION":0,"NORMAL":1}}]},{"name":"Mesh0","primitives":[{"indices":5,"material":0,"attributes":{"POSITION":3,"NORMAL":4}}]},{"name":"Mesh0","primitives":[{"indices":8,"material":0,"attributes":{"POSITION":6,"NORMAL":7}}]},{"name":"Mesh0","primitives":[{"indices":11,"material":0,"attributes":{"POSITION":9,"NORMAL":10}}]},{"name":"Mesh0","primitives":[{"indices":14,"material":0,"attributes":{"POSITION":12,"NORMAL":13}}]},{"name":"Mesh0","primitives":[{"indices":17,"material":0,"attributes":{"POSITION":15,"NORMAL":16}}]},{"name":"Mesh0","primitives":[{"indices":20,"material":0,"attributes":{"POSITION":18,"NORMAL":19}}]},{"name":"Mesh0","primitives":[{"indices":23,"material":0,"attributes":{"POSITION":21,"NORMAL":22}}]},{"name":"Mesh0","primitives":[{"indices":26,"material":0,"attributes":{"POSITION":24,"NORMAL":25}}]},{"name":"Mesh0","primitives":[{"indices":29,"material":0,"attributes":{"POSITION":27,"NORMAL":28}}]},{"name":"Mesh0","primitives":[{"indices":32,"material":0,"attributes":{"POSITION":30,"NORMAL":31}}]},{"name":"Mesh0","primitives":[{"indices":35,"material":0,"attributes":{"POSITION":33,"NORMAL":34}}]}],"accessors":[{"bufferView":0,"componentType":5126,"count":188,"type":"VEC3","min":[73.55511,6.266142E-14,-154.0702],"max":[128.6732,86.61417,-95.01511]},{"bufferView":1,"componentType":5126,"count":188,"type":"VEC3"},{"bufferView":2,"componentType":5123,"count":420,"type":"SCALAR"},{"bufferView":3,"componentType":5126,"count":24,"type":"VEC3","min":[81.42912,6.278195E-14,-99.93637],"max":[120.7992,78.74016,-96.98362]},{"bufferView":4,"componentType":5126,"count":24,"type":"VEC3"},{"bufferView":5,"componentType":5123,"count":36,"type":"SCALAR"},{"bufferView":6,"componentType":5126,"count":60,"type":"VEC3","min":[73.55511,6.266142E-14,-99.93637],"max":[128.6732,86.61417,-95.01511]},{"bufferView":7,"componentType":5126,"count":60,"type":"VEC3"},{"bufferView":8,"componentType":5123,"count":156,"type":"SCALAR"},{"bufferView":9,"componentType":5126,"count":6,"type":"VEC3","min":[123.6355,45.16567,-94.42456],"max":[124.9994,46.34677,-94.42456]},{"bufferView":10,"componentType":5126,"count":6,"type":"VEC3"},{"bufferView":11,"componentType":5123,"count":6,"type":"SCALAR"},{"bufferView":12,"componentType":5126,"count":6,"type":"VEC3","min":[123.6355,41.22866,-94.42456],"max":[124.9994,42.40977,-94.42456]},{"bufferView":13,"componentType":5126,"count":6,"type":"VEC3"},{"bufferView":14,"componentType":5123,"count":6,"type":"SCALAR"},{"bufferView":15,"componentType":5126,"count":54,"type":"VEC3","min":[123.1363,40.83496,-94.42456],"max":[125.4985,43.19717,-94.42456]},{"bufferView":16,"componentType":5126,"count":54,"type":"VEC3"},{"bufferView":17,"componentType":5123,"count":162,"type":"SCALAR"},{"bufferView":18,"componentType":5126,"count":136,"type":"VEC3","min":[122.28,39.71765,-95.01511],"max":[126.217,48.37906,-94.62141]},{"bufferView":19,"componentType":5126,"count":136,"type":"VEC3"},{"bufferView":20,"componentType":5123,"count":372,"type":"SCALAR"},{"bufferView":21,"componentType":5126,"count":96,"type":"VEC3","min":[123.1363,44.37827,-94.62141],"max":[125.4985,46.74047,-94.42456]},{"bufferView":22,"componentType":5126,"count":96,"type":"VEC3"},{"bufferView":23,"componentType":5123,"count":288,"type":"SCALAR"},{"bufferView":24,"componentType":5126,"count":96,"type":"VEC3","min":[123.1363,40.83496,-94.62141],"max":[125.4985,43.19717,-94.42456]},{"bufferView":25,"componentType":5126,"count":96,"type":"VEC3"},{"bufferView":26,"componentType":5123,"count":288,"type":"SCALAR"},{"bufferView":27,"componentType":5126,"count":54,"type":"VEC3","min":[123.1363,44.37827,-94.42456],"max":[125.4985,46.74047,-94.42456]},{"bufferView":28,"componentType":5126,"count":54,"type":"VEC3"},{"bufferView":29,"componentType":5123,"count":162,"type":"SCALAR"},{"bufferView":30,"componentType":5126,"count":16,"type":"VEC3","min":[95.18642,80.95853,-95.01511],"max":[108.1785,84.50184,-95.01511]},{"bufferView":31,"componentType":5126,"count":16,"type":"VEC3"},{"bufferView":32,"componentType":5123,"count":48,"type":"SCALAR"},{"bufferView":33,"componentType":5126,"count":8,"type":"VEC3","min":[98.15138,81.53688,-95.01511],"max":[105.2136,83.92349,-95.01511]},{"bufferView":34,"componentType":5126,"count":8,"type":"VEC3"},{"bufferView":35,"componentType":5123,"count":12,"type":"SCALAR"}],"bufferViews":[{"target":34962,"buffer":0,"byteLength":2256,"byteOffset":0},{"target":34962,"buffer":0,"byteLength":2256,"byteOffset":2256},{"target":34963,"buffer":0,"byteLength":840,"byteOffset":4512},{"target":34962,"buffer":0,"byteLength":288,"byteOffset":5352},{"target":34962,"buffer":0,"byteLength":288,"byteOffset":5640},{"target":34963,"buffer":0,"byteLength":72,"byteOffset":5928},{"target":34962,"buffer":0,"byteLength":720,"byteOffset":6000},{"target":34962,"buffer":0,"byteLength":720,"byteOffset":6720},{"target":34963,"buffer":0,"byteLength":312,"byteOffset":7440},{"target":34962,"buffer":0,"byteLength":72,"byteOffset":7752},{"target":34962,"buffer":0,"byteLength":72,"byteOffset":7824},{"target":34963,"buffer":0,"byteLength":12,"byteOffset":7896},{"target":34962,"buffer":0,"byteLength":72,"byteOffset":7908},{"target":34962,"buffer":0,"byteLength":72,"byteOffset":7980},{"target":34963,"buffer":0,"byteLength":12,"byteOffset":8052},{"target":34962,"buffer":0,"byteLength":648,"byteOffset":8064},{"target":34962,"buffer":0,"byteLength":648,"byteOffset":8712},{"target":34963,"buffer":0,"byteLength":324,"byteOffset":9360},{"target":34962,"buffer":0,"byteLength":1632,"byteOffset":9684},{"target":34962,"buffer":0,"byteLength":1632,"byteOffset":11316},{"target":34963,"buffer":0,"byteLength":744,"byteOffset":12948},{"target":34962,"buffer":0,"byteLength":1152,"byteOffset":13692},{"target":34962,"buffer":0,"byteLength":1152,"byteOffset":14844},{"target":34963,"buffer":0,"byteLength":576,"byteOffset":15996},{"target":34962,"buffer":0,"byteLength":1152,"byteOffset":16572},{"target":34962,"buffer":0,"byteLength":1152,"byteOffset":17724},{"target":34963,"buffer":0,"byteLength":576,"byteOffset":18876},{"target":34962,"buffer":0,"byteLength":648,"byteOffset":19452},{"target":34962,"buffer":0,"byteLength":648,"byteOffset":20100},{"target":34963,"buffer":0,"byteLength":324,"byteOffset":20748},{"target":34962,"buffer":0,"byteLength":192,"byteOffset":21072},{"target":34962,"buffer":0,"byteLength":192,"byteOffset":21264},{"target":34963,"buffer":0,"byteLength":96,"byteOffset":21456},{"target":34962,"buffer":0,"byteLength":96,"byteOffset":21552},{"target":34962,"buffer":0,"byteLength":96,"byteOffset":21648},{"target":34963,"buffer":0,"byteLength":24,"byteOffset":21744}],"buffers":[{"byteLength":21768,"uri":"data:application/octet-stream;base64,"}]}